<svg xmlns="http://www.w3.org/2000/svg" viewBox="-340.4 -28.47 928.79 928.79" fill="currentColor"><path d="M108.5 8C58.9 18 31.1 52.1 21.1 115.1c-3 18.6-4 32-5.1 68.9-.6 18.4-1.7 40.7-2.5 49.5-4.5 48.9-7.3 151.6-8.2 302-.4 75-.2 110.3.6 123.5.6 10.2 1.8 37.8 2.6 61.5 1.2 35.3 1.8 44.7 3.5 52.6 2.3 10.9 8.2 28.9 17 51.3 5.6 14.1 6.5 15.7 11.4 20.4 12.6 11.9 37.2 19.8 65.1 20.9 13.5.5 16.2.3 27.5-2.1 6.9-1.4 17.5-4.2 23.5-6.2 28-9.2 40.8-19.1 49.5-37.9 4.3-9.2 5.5-13.5 11-38.1 2.2-9.8 5.5-24.3 7.4-32 13.5-55.9 17.8-124.7 15.5-243.9-1.8-90.1-1.7-142.8.5-176.5 2.3-36.1 3.3-115.2 1.7-140-6.4-102.2-30.8-159.2-75.8-177.5-14.2-5.7-39.2-7.3-57.8-3.5"/></svg>