<svg xmlns="http://www.w3.org/2000/svg" viewBox="-726.17 -61.33 1658.66 1658.66" fill="currentColor"><path d="M155.5 1.5c-6.7 1.8-10.4 6.1-19.2 22.6-7.8 14.8-20.3 41.1-25.7 54-6.4 15.7-22.5 61.5-25.5 73-1.7 6.3-5.8 19.5-9.2 29.4-11.2 33.4-26.6 96.7-42.3 174.1C17.6 433.4 7.5 502.1 4 555.5 1.9 588.6.7 661.2.6 770 .5 888.8.8 903.6 5 958c1.1 14 2.7 46 3.5 71 4 122.1 8.3 168.5 22.1 236.7 15.7 77.9 46.1 180.4 65.5 221.2 10.4 21.9 26.3 43.1 35.4 47.2 4.6 2.1 13 2.4 18.8.7 2.2-.7 5.7-2.8 7.7-4.8 8.9-8.4 12.3-29.2 17.5-104 1.4-20.1 3.9-53.2 5.5-73.5 6.6-81.9 9.5-130.9 12-202.5 1.9-56.1 2.4-80.4 10-508 3.2-185.3 3.7-341 1-406.5-.5-13.8-2.1-62.1-3.5-107.5-3.1-102.2-2.9-99.3-7-107.8-4.2-8.8-10.8-17-15.1-18.8-4.2-1.8-16.2-1.7-22.9.1"/></svg>